<svg xmlns="http://www.w3.org/2000/svg" viewBox="0 0 68.12 148.7"><defs><style>.cls-1{fill:#efcbb1;}.cls-2{fill:#f4d9bf;}.cls-3{fill:#bcb19a;}.cls-4{fill:#a57600;}.cls-5{fill:#5f4100;}.cls-6{fill:#6b6a5f;}.cls-7{fill:#c9bca6;}.cls-8{fill:#1d1d1b;}.cls-9{fill:#a0220a;}.cls-10{fill:#b58500;}</style></defs><title>Ресурс 12</title><g id="Слой_2" data-name="Слой 2"><g id="Objects"><polygon class="cls-1" points="61.93 43.41 55.74 43.41 55.74 49.59 55.74 55.78 61.93 55.78 61.93 49.59 68.12 49.59 68.12 43.41 61.93 43.41"/><polygon class="cls-2" points="49.56 105.29 49.56 111.47 55.74 111.47 61.93 111.47 61.93 105.29 55.74 105.29 49.56 105.29"/><polygon class="cls-3" points="49.56 80.54 49.56 86.73 49.56 92.92 49.56 99.11 49.56 105.29 55.74 105.29 61.93 105.29 61.93 99.11 61.93 92.92 61.93 86.73 61.93 80.54 61.93 74.35 61.93 68.16 55.74 68.16 49.56 68.16 49.56 74.35 49.56 80.54"/><rect class="cls-1" x="49.56" y="55.78" width="6.18" height="6.19"/><path class="cls-2" d="M55.74,43.41V30.94H49.56V24.75H12.38v31h6.19V62h6.24v6.19H37.19V62H49.56V55.78h6.18V43.41ZM31,37.22h6.2v6.19H31Zm-12.42,0h6.24v6.19H18.57ZM37.19,55.78H24.81V49.59H43.36v6.19Z"/><polygon class="cls-4" points="49.56 24.75 49.56 30.94 55.74 30.94 55.74 37.22 55.74 43.41 61.93 43.41 61.93 37.22 61.93 30.94 61.93 24.75 61.93 18.56 55.74 18.56 55.74 12.38 49.56 12.38 49.56 18.56 49.56 24.75"/><polygon class="cls-5" points="43.36 142.51 37.19 142.51 37.19 148.7 43.36 148.7 49.56 148.7 55.74 148.7 55.74 142.51 49.56 142.51 43.36 142.51"/><polygon class="cls-6" points="43.36 111.47 37.19 111.47 30.99 111.47 24.81 111.47 18.57 111.47 18.57 117.66 18.57 123.85 18.57 130.04 18.57 136.32 18.57 142.51 24.81 142.51 30.99 142.51 30.99 136.32 30.99 130.04 30.99 123.85 30.99 117.66 37.19 117.66 43.36 117.66 43.36 123.85 43.36 130.04 43.36 136.32 43.36 142.51 49.56 142.51 55.74 142.51 55.74 136.32 55.74 130.04 55.74 123.85 55.74 117.66 55.74 111.47 49.56 111.47 43.36 111.47"/><polygon class="cls-7" points="37.19 68.16 37.19 74.35 37.19 80.54 37.19 86.73 37.19 92.92 37.19 99.11 37.19 105.29 30.99 105.29 30.99 99.11 30.99 92.92 30.99 86.73 30.99 80.54 30.99 74.35 24.81 74.35 24.81 68.16 18.57 68.16 18.57 74.35 18.57 80.54 18.57 86.73 18.57 92.92 18.57 99.11 18.57 105.29 18.57 111.47 24.81 111.47 30.99 111.47 37.19 111.47 43.36 111.47 49.56 111.47 49.56 105.29 49.56 99.11 49.56 92.92 49.56 86.73 49.56 80.54 49.56 74.35 49.56 68.16 43.36 68.16 37.19 68.16"/><polygon class="cls-1" points="37.19 61.97 37.19 68.16 43.36 68.16 49.56 68.16 49.56 61.97 43.36 61.97 37.19 61.97"/><polygon class="cls-1" points="37.19 49.59 30.99 49.59 24.81 49.59 24.81 55.78 30.99 55.78 37.19 55.78 43.36 55.78 43.36 49.59 37.19 49.59"/><rect class="cls-8" x="30.99" y="37.22" width="6.2" height="6.19"/><polygon class="cls-9" points="30.99 74.35 30.99 80.54 30.99 86.73 30.99 92.92 30.99 99.11 30.99 105.29 37.19 105.29 37.19 99.11 37.19 92.92 37.19 86.73 37.19 80.54 37.19 74.35 37.19 68.16 30.99 68.16 24.81 68.16 24.81 74.35 30.99 74.35"/><polygon class="cls-5" points="18.57 142.51 12.38 142.51 12.38 148.7 18.57 148.7 24.81 148.7 30.99 148.7 30.99 142.51 24.81 142.51 18.57 142.51"/><rect class="cls-8" x="18.57" y="37.22" width="6.24" height="6.19"/><rect class="cls-2" x="12.38" y="105.29" width="6.19" height="6.18"/><polygon class="cls-3" points="18.57 99.11 18.57 92.92 18.57 86.73 18.57 80.54 18.57 74.35 18.57 68.16 12.38 68.16 12.38 74.35 12.38 80.54 12.38 86.73 12.38 92.92 12.38 99.11 12.38 105.29 18.57 105.29 18.57 99.11"/><polygon class="cls-10" points="18.57 24.75 24.81 24.75 30.99 24.75 37.19 24.75 43.36 24.75 49.56 24.75 49.56 18.56 49.56 12.38 43.36 12.38 37.19 12.38 30.99 12.38 24.81 12.38 18.57 12.38 12.38 12.38 12.38 6.19 12.38 0 6.19 0 6.19 6.19 0 6.19 0 12.38 0 18.56 0 24.75 6.19 24.75 12.38 24.75 18.57 24.75"/><rect class="cls-4" x="12.38" y="6.19" width="6.19" height="6.19"/><polygon class="cls-4" points="12.38 30.94 12.38 24.75 6.19 24.75 6.19 30.94 6.19 37.22 6.19 43.41 12.38 43.41 12.38 37.22 12.38 30.94"/></g></g></svg>