<svg xmlns="http://www.w3.org/2000/svg" viewBox="0 0 55.74 138.32"><defs><style>.cls-1{opacity:0.3;}.cls-2{fill:#dbdbdd;}.cls-3{fill:#efcbb1;}.cls-4{fill:#585e60;}.cls-5{fill:#f4d9bf;}.cls-6{fill:#747b7f;}.cls-7{fill:#1d1d1b;}.cls-8{fill:#00517b;}.cls-9{fill:#193540;}</style></defs><title>Ресурс 15</title><g id="Слой_2" data-name="Слой 2"><g id="Background"><g class="cls-1"><rect class="cls-2" x="1.7" y="126.34" width="5.99" height="5.99"/><polyline class="cls-2" points="7.68 138.32 7.68 132.33 13.68 132.33"/><rect class="cls-2" x="31.7" y="102.38" width="5.99" height="5.99"/><rect class="cls-2" x="31.7" y="120.35" width="5.99" height="5.99"/><rect class="cls-2" x="37.69" y="84.42" width="5.99" height="5.99"/><rect class="cls-2" x="37.69" y="96.39" width="5.99" height="5.99"/><rect class="cls-2" x="37.69" y="108.37" width="5.99" height="5.99"/></g></g><g id="Objects"><polygon class="cls-3" points="49.55 31.03 43.36 31.03 43.36 37.22 43.36 43.4 49.55 43.4 49.55 37.22 55.74 37.22 55.74 31.03 49.55 31.03"/><polygon class="cls-4" points="43.36 24.84 43.36 31.03 49.55 31.03 49.55 24.84 49.55 18.55 49.55 12.37 43.36 12.37 43.36 18.55 43.36 24.84"/><polygon class="cls-5" points="37.18 92.92 37.18 99.09 43.36 99.09 49.55 99.09 49.55 92.92 43.36 92.92 37.18 92.92"/><polygon class="cls-4" points="37.18 68.16 37.18 74.35 37.18 80.54 37.18 86.73 37.18 92.92 43.36 92.92 49.55 92.92 49.55 86.73 49.55 80.54 49.55 74.35 49.55 68.16 49.55 61.97 49.55 55.78 43.36 55.78 37.18 55.78 37.18 61.97 37.18 68.16"/><rect class="cls-3" x="37.18" y="43.4" width="6.18" height="6.19"/><path class="cls-5" d="M43.36,31H37.18V12.37H0v31H6.19v6.19h31V43.4h6.18V31ZM18.61,24.84h6.2V31h-6.2Zm-12.42,0h6.24V31H6.19ZM18.61,43.4H12.43V37.21H24.81V43.4Z"/><polygon class="cls-6" points="37.18 18.55 37.18 24.84 37.18 31.03 43.36 31.03 43.36 24.84 43.36 18.55 43.36 12.37 37.18 12.37 37.18 18.55"/><rect class="cls-4" x="37.18" y="6.18" width="6.18" height="6.19"/><polygon class="cls-7" points="30.99 130.13 24.81 130.13 24.81 136.32 30.99 136.32 37.18 136.32 43.36 136.32 43.36 130.13 37.18 130.13 30.99 130.13"/><polygon class="cls-8" points="30.99 99.09 24.81 99.09 18.61 99.09 12.43 99.09 6.19 99.09 6.19 105.28 6.19 111.47 6.19 117.66 6.19 123.94 6.19 130.13 12.43 130.13 18.61 130.13 18.61 123.94 18.61 117.66 18.61 111.47 18.61 105.28 24.81 105.28 30.99 105.28 30.99 111.47 30.99 117.66 30.99 123.94 30.99 130.13 37.18 130.13 43.36 130.13 43.36 123.94 43.36 117.66 43.36 111.47 43.36 105.28 43.36 99.09 37.18 99.09 30.99 99.09"/><rect class="cls-4" x="30.99" y="49.59" width="6.2" height="6.19"/><rect class="cls-4" x="30.99" width="6.2" height="6.18"/><polygon class="cls-6" points="30.99 49.59 24.81 49.59 18.61 49.59 12.43 49.59 12.43 55.78 6.19 55.78 6.19 61.97 6.19 68.16 6.19 74.35 6.19 80.54 6.19 86.73 6.19 92.92 6.19 99.09 12.43 99.09 18.61 99.09 24.81 99.09 30.99 99.09 37.18 99.09 37.18 92.92 37.18 86.73 37.18 80.54 37.18 74.35 37.18 68.16 37.18 61.97 37.18 55.78 30.99 55.78 30.99 49.59"/><polygon class="cls-3" points="18.61 37.22 12.43 37.22 12.43 43.4 18.61 43.4 24.81 43.4 24.81 37.22 18.61 37.22"/><rect class="cls-9" x="18.61" y="24.84" width="6.2" height="6.19"/><polygon class="cls-7" points="6.19 130.13 0 130.13 0 136.32 6.19 136.32 12.43 136.32 18.61 136.32 18.61 130.13 12.43 130.13 6.19 130.13"/><rect class="cls-9" x="6.19" y="24.84" width="6.24" height="6.19"/><polygon class="cls-6" points="12.43 12.37 18.61 12.37 24.81 12.37 30.99 12.37 37.18 12.37 37.18 6.18 30.99 6.18 30.99 0 24.81 0 18.61 0 12.43 0 6.19 0 0 0 0 6.18 0 12.37 6.19 12.37 12.43 12.37"/><rect class="cls-5" y="92.92" width="6.19" height="6.18"/><polygon class="cls-4" points="6.19 86.73 6.19 80.54 6.19 74.35 6.19 68.16 6.19 61.97 6.19 55.78 0 55.78 0 61.97 0 68.16 0 74.35 0 80.54 0 86.73 0 92.92 6.19 92.92 6.19 86.73"/></g></g></svg>