<svg xmlns="http://www.w3.org/2000/svg" viewBox="0 0 61.93 142.51"><defs><style>.cls-1{fill:#381800;}.cls-2{fill:#925f2d;}.cls-3{fill:#aa7536;}.cls-4{fill:#003c56;}.cls-5{fill:#00517b;}.cls-6{fill:#e2dfcf;}.cls-7{fill:#004868;}.cls-8{fill:#a0220a;}.cls-9{fill:#542700;}</style></defs><title>Ресурс 6</title><g id="Слой_2" data-name="Слой 2"><g id="Objects"><polygon class="cls-1" points="55.74 18.56 55.74 12.37 49.55 12.37 49.55 6.19 43.37 6.19 43.37 12.37 43.37 18.56 49.55 18.56 49.55 24.75 49.55 31.03 55.74 31.03 55.74 37.22 61.93 37.22 61.93 31.03 61.93 24.75 61.93 18.56 55.74 18.56"/><polygon class="cls-2" points="55.74 31.03 49.55 31.03 49.55 37.22 49.55 43.4 49.55 49.59 55.74 49.59 55.74 43.4 61.93 43.4 61.93 37.22 55.74 37.22 55.74 31.03"/><polygon class="cls-3" points="43.37 99.11 43.37 105.28 49.55 105.28 55.74 105.28 55.74 99.11 49.55 99.11 43.37 99.11"/><polygon class="cls-4" points="43.37 74.35 43.37 80.54 43.37 86.73 43.37 92.92 43.37 99.11 49.55 99.11 55.74 99.11 55.74 92.92 55.74 86.73 55.74 80.54 55.74 74.35 55.74 68.16 55.74 61.97 49.55 61.97 43.37 61.97 43.37 68.16 43.37 74.35"/><rect class="cls-2" x="43.37" y="49.59" width="6.18" height="6.19"/><path class="cls-3" d="M49.55,37.22V24.75H37.18V18.56H12.38v6.19H6.19V49.59h6.19v6.19h6.24V62H31V55.78H43.37V49.59h6.18V37.22ZM24.8,31H31v6.19H24.8ZM12.38,31h6.24v6.19H12.38ZM31,49.59H18.62V43.4H37.18v6.19Z"/><polygon class="cls-1" points="37.18 136.32 31 136.32 31 142.51 37.18 142.51 43.37 142.51 49.55 142.51 49.55 136.32 43.37 136.32 37.18 136.32"/><polygon class="cls-5" points="37.18 105.28 31 105.28 24.8 105.28 18.62 105.28 12.38 105.28 12.38 111.47 12.38 117.66 12.38 123.85 12.38 130.13 12.38 136.32 18.62 136.32 24.8 136.32 24.8 130.13 24.8 123.85 24.8 117.66 24.8 111.47 31 111.47 37.18 111.47 37.18 117.66 37.18 123.85 37.18 130.13 37.18 136.32 43.37 136.32 49.55 136.32 49.55 130.13 49.55 123.85 49.55 117.66 49.55 111.47 49.55 105.28 43.37 105.28 37.18 105.28"/><rect class="cls-1" x="37.18" width="6.2" height="6.19"/><polygon class="cls-6" points="31 61.97 31 68.16 31 74.35 37.18 74.35 37.18 68.16 43.37 68.16 43.37 61.97 37.18 61.97 31 61.97"/><polygon class="cls-2" points="31 55.78 31 61.97 37.18 61.97 43.37 61.97 43.37 55.78 37.18 55.78 31 55.78"/><polygon class="cls-2" points="31 43.4 24.8 43.4 18.62 43.4 18.62 49.59 24.8 49.59 31 49.59 37.18 49.59 37.18 43.4 31 43.4"/><rect class="cls-1" x="24.8" y="31.03" width="6.2" height="6.19"/><polygon class="cls-7" points="24.8 105.28 31 105.28 37.18 105.28 43.37 105.28 43.37 99.11 43.37 92.92 43.37 86.73 43.37 80.54 43.37 74.35 43.37 68.16 37.18 68.16 37.18 74.35 31 74.35 31 80.54 31 86.73 31 92.92 24.8 92.92 24.8 86.73 24.8 80.54 24.8 74.35 18.62 74.35 18.62 68.16 12.38 68.16 12.38 74.35 12.38 80.54 12.38 86.73 12.38 92.92 12.38 99.11 12.38 105.28 18.62 105.28 24.8 105.28"/><rect class="cls-6" x="18.62" y="68.16" width="6.18" height="6.19"/><polygon class="cls-8" points="24.8 68.16 24.8 74.35 24.8 80.54 24.8 86.73 24.8 92.92 31 92.92 31 86.73 31 80.54 31 74.35 31 68.16 31 61.97 24.8 61.97 18.62 61.97 18.62 68.16 24.8 68.16"/><polygon class="cls-1" points="12.38 136.32 6.19 136.32 6.19 142.51 12.38 142.51 18.62 142.51 24.8 142.51 24.8 136.32 18.62 136.32 12.38 136.32"/><rect class="cls-6" x="12.38" y="61.97" width="6.24" height="6.19"/><rect class="cls-1" x="12.38" y="31.03" width="6.24" height="6.19"/><rect class="cls-1" x="12.38" y="12.37" width="6.24" height="6.19"/><rect class="cls-3" x="6.19" y="99.1" width="6.19" height="6.18"/><polygon class="cls-4" points="12.38 92.92 12.38 86.73 12.38 80.54 12.38 74.35 12.38 68.16 12.38 61.97 6.19 61.97 6.19 68.16 6.19 74.35 6.19 80.54 6.19 86.73 6.19 92.92 6.19 99.11 12.38 99.11 12.38 92.92"/><rect class="cls-1" x="6.19" y="18.56" width="6.19" height="6.19"/><polygon class="cls-1" points="6.19 31.03 6.19 24.75 0 24.75 0 31.03 0 37.22 0 43.4 6.19 43.4 6.19 37.22 6.19 31.03"/><polygon class="cls-9" points="6.19 18.56 12.38 18.56 12.38 12.37 18.62 12.37 18.62 18.56 24.8 18.56 31 18.56 37.18 18.56 37.18 24.75 43.37 24.75 49.55 24.75 49.55 18.56 43.37 18.56 43.37 12.37 43.37 6.19 37.18 6.19 37.18 0 31 0 24.8 0 18.62 0 12.38 0 12.38 6.19 6.19 6.19 6.19 12.37 0 12.37 0 18.56 0 24.75 6.19 24.75 6.19 18.56"/></g></g></svg>