<svg xmlns="http://www.w3.org/2000/svg" viewBox="0 0 74.31 142.51"><defs><style>.cls-1{fill:#efcbb1;}.cls-2{fill:#5b371d;}.cls-3{fill:#bcb19a;}.cls-4{fill:#f4d9bf;}.cls-5{fill:#59404b;}.cls-6{fill:#e2dfcf;}.cls-7{fill:#bc847e;}.cls-8{fill:#fff;}.cls-9{fill:#193540;}.cls-10{fill:#d2948b;}.cls-11{fill:#805126;}.cls-12{fill:#e3bb94;}</style></defs><title>Ресурс 1</title><g id="Слой_2" data-name="Слой 2"><g id="Objects"><polygon class="cls-1" points="68.12 37.22 68.12 31.03 61.93 31.03 61.93 37.22 61.93 43.4 61.93 49.59 68.12 49.59 68.12 43.4 74.31 43.4 74.31 37.22 68.12 37.22"/><polygon class="cls-2" points="61.93 24.75 61.93 31.03 68.12 31.03 68.12 24.75 68.12 18.56 68.12 12.37 61.93 12.37 61.93 18.56 61.93 24.75"/><rect class="cls-3" x="55.75" y="105.28" width="6.18" height="6.19"/><polygon class="cls-4" points="55.75 80.54 55.75 86.73 55.75 92.92 55.75 99.11 55.75 105.28 61.93 105.28 68.12 105.28 68.12 99.11 68.12 92.92 68.12 86.73 68.12 80.54 61.93 80.54 55.75 80.54"/><rect class="cls-1" x="55.75" y="49.59" width="6.18" height="6.19"/><path class="cls-4" d="M61.93,37.22V24.75H55.75V18.56H18.57v31h6.19v6.19H31V62H43.37V55.78H55.75V49.59h6.18V37.22Zm-18.56,0h-6.2V31h6.2ZM24.76,31H31v6.19H24.76ZM49.55,43.4v6.19H31V43.4H49.55V37.22h6.2V43.4Z"/><rect class="cls-2" x="55.75" y="6.19" width="6.18" height="6.18"/><polygon class="cls-5" points="49.55 136.32 43.37 136.32 43.37 142.51 49.55 142.51 55.75 142.51 61.93 142.51 61.93 136.32 55.75 136.32 49.55 136.32"/><polygon class="cls-6" points="55.75 105.28 49.55 105.28 43.37 105.28 37.17 105.28 31 105.28 24.75 105.28 24.75 111.47 24.75 117.66 24.75 123.85 24.75 130.13 24.75 136.32 31 136.32 37.17 136.32 37.17 130.13 37.17 123.85 37.17 117.66 37.17 111.47 43.37 111.47 49.55 111.47 49.55 117.66 49.55 123.85 49.55 130.13 49.55 136.32 55.75 136.32 61.93 136.32 61.93 130.13 61.93 123.85 61.93 117.66 61.93 111.47 55.75 111.47 55.75 105.28"/><polygon class="cls-7" points="49.55 68.16 55.75 68.16 55.75 74.35 55.75 80.54 61.93 80.54 68.12 80.54 68.12 74.35 68.12 68.16 68.12 61.97 61.93 61.97 55.75 61.97 49.55 61.97 49.55 68.16"/><rect class="cls-8" x="49.55" y="37.22" width="6.2" height="6.19"/><polygon class="cls-1" points="43.37 55.78 43.37 61.97 37.17 61.97 31 61.97 31 68.16 37.17 68.16 43.37 68.16 49.55 68.16 49.55 61.97 55.75 61.97 55.75 55.78 49.55 55.78 43.37 55.78"/><polygon class="cls-8" points="37.17 43.4 31 43.4 31 49.59 37.17 49.59 43.37 49.59 49.55 49.59 49.55 43.4 43.37 43.4 37.17 43.4"/><rect class="cls-9" x="37.17" y="31.03" width="6.2" height="6.19"/><polygon class="cls-10" points="37.17 105.28 43.37 105.28 49.55 105.28 55.75 105.28 55.75 99.11 55.75 92.92 55.75 86.73 55.75 80.54 55.75 74.35 55.75 68.16 49.55 68.16 43.37 68.16 37.17 68.16 31 68.16 31 61.97 24.75 61.97 24.75 68.16 24.75 74.35 24.75 80.54 24.75 86.73 24.75 92.92 24.75 99.11 24.75 105.28 31 105.28 37.17 105.28"/><polygon class="cls-5" points="24.75 136.32 18.57 136.32 18.57 142.51 24.75 142.51 31 142.51 37.17 142.51 37.17 136.32 31 136.32 24.75 136.32"/><rect class="cls-9" x="24.76" y="31.03" width="6.24" height="6.19"/><polygon class="cls-11" points="31 18.56 37.17 18.56 43.37 18.56 49.55 18.56 55.75 18.56 55.75 24.75 61.93 24.75 61.93 18.56 61.93 12.37 55.75 12.37 55.75 6.19 49.55 6.19 43.37 6.19 37.17 6.19 31 6.19 31 0 24.75 0 24.75 6.19 18.57 6.19 18.57 12.37 12.38 12.37 12.38 18.56 18.57 18.56 24.75 18.56 31 18.56"/><polygon class="cls-7" points="24.75 68.16 24.75 61.97 18.57 61.97 18.57 68.16 18.57 74.35 18.57 80.54 24.75 80.54 24.75 74.35 24.75 68.16"/><polygon class="cls-4" points="12.38 74.35 12.38 80.54 12.38 86.73 18.57 86.73 18.57 80.54 18.57 74.35 12.38 74.35"/><polygon class="cls-12" points="12.38 74.35 12.38 68.16 12.38 61.97 6.19 61.97 6.19 68.16 0 68.16 0 74.35 0 80.54 6.19 80.54 6.19 86.73 12.38 86.73 12.38 80.54 12.38 74.35"/></g></g></svg>