<svg xmlns="http://www.w3.org/2000/svg" viewBox="0 0 99.11 148.7"><defs><style>.cls-1{fill:none;}.cls-2{fill:#59361c;}.cls-3{fill:#805126;}.cls-4{fill:#f4d9bf;}.cls-5{fill:#efcbb1;}.cls-6{fill:#8e1a0a;}.cls-7{fill:#a0220a;}.cls-8{fill:#59404b;}.cls-9{fill:#732706;}.cls-10{fill:#193540;}.cls-11{fill:#f9ab4e;}.cls-12{fill:#fff;}.cls-13{fill:#838272;}.cls-14{fill:#d3d2d8;}</style></defs><title>Ресурс 8</title><g id="Слой_2" data-name="Слой 2"><g id="Objects"><rect class="cls-1" x="12.38" y="30.93" width="6.19" height="6.28"/><polygon class="cls-1" points="80.5 86.73 74.31 86.73 74.31 92.92 68.13 92.92 68.13 99.11 74.31 99.11 80.5 99.11 80.5 92.92 80.5 86.73"/><polygon class="cls-2" points="92.92 49.59 92.92 43.41 92.92 37.22 92.92 30.93 86.69 30.93 86.69 37.22 86.69 43.41 86.69 49.59 86.69 55.78 92.92 55.78 92.92 61.97 99.11 61.97 99.11 55.78 99.11 49.59 92.92 49.59"/><rect class="cls-2" x="86.68" y="61.97" width="6.24" height="6.19"/><polygon class="cls-3" points="86.69 55.78 86.69 49.59 86.69 43.41 86.69 37.22 86.69 30.93 80.5 30.93 80.5 24.75 80.5 18.56 74.31 18.56 68.13 18.56 68.13 12.38 61.93 12.38 55.75 12.38 49.55 12.38 43.37 12.38 37.13 12.38 30.94 12.38 30.94 18.56 24.75 18.56 24.75 24.75 18.57 24.75 18.57 30.93 18.57 37.22 18.57 43.41 18.57 49.59 24.75 49.59 24.75 43.41 24.75 37.22 30.94 37.22 30.94 30.93 30.94 24.75 37.13 24.75 43.37 24.75 43.37 30.93 49.55 30.93 55.75 30.93 61.93 30.93 61.93 37.22 68.13 37.22 68.13 43.41 74.31 43.41 80.5 43.41 80.5 49.59 74.31 49.59 74.31 55.78 68.13 55.78 68.13 61.97 61.93 61.97 61.93 68.16 61.93 74.35 68.13 74.35 68.13 68.16 74.31 68.16 80.5 68.16 86.69 68.16 86.69 61.97 92.92 61.97 92.92 55.78 86.69 55.78"/><polygon class="cls-2" points="80.5 30.93 86.69 30.93 86.69 24.75 86.69 18.56 80.5 18.56 80.5 24.75 80.5 30.93"/><rect class="cls-4" x="74.31" y="99.11" width="6.19" height="6.19"/><polygon class="cls-4" points="74.31 80.54 74.31 86.73 80.5 86.73 80.5 92.92 80.5 99.11 86.69 99.11 86.69 92.92 86.69 86.73 86.69 80.54 80.5 80.54 80.5 74.35 74.31 74.35 74.31 80.54"/><polygon class="cls-2" points="74.31 68.16 68.13 68.16 68.13 74.35 74.31 74.35 80.5 74.35 86.69 74.35 86.69 68.16 80.5 68.16 74.31 68.16"/><rect class="cls-5" x="74.31" y="43.41" width="6.19" height="6.19"/><polygon class="cls-6" points="68.13 99.11 68.13 105.29 68.13 111.47 68.13 117.66 74.31 117.66 74.31 111.47 74.31 105.29 74.31 99.11 68.13 99.11"/><polygon class="cls-6" points="68.13 86.73 68.13 92.92 74.31 92.92 74.31 86.73 74.31 80.54 74.31 74.35 68.13 74.35 68.13 80.54 68.13 86.73"/><rect class="cls-2" x="68.13" y="12.38" width="6.18" height="6.18"/><polygon class="cls-4" points="61.93 123.85 61.93 130.04 61.93 136.32 61.93 142.51 68.13 142.51 68.13 136.32 68.13 130.04 68.13 123.85 68.13 117.66 61.93 117.66 61.93 123.85"/><polygon class="cls-7" points="68.13 105.29 68.13 99.11 61.93 99.11 55.75 99.11 49.55 99.11 43.37 99.11 37.13 99.11 37.13 105.29 37.13 111.47 37.13 117.66 43.37 117.66 49.55 117.66 55.75 117.66 61.93 117.66 68.13 117.66 68.13 111.47 68.13 105.29"/><rect class="cls-2" x="61.93" y="74.35" width="6.2" height="6.19"/><polygon class="cls-8" points="55.75 142.51 55.75 148.7 61.93 148.7 68.13 148.7 68.13 142.51 61.93 142.51 55.75 142.51"/><polygon class="cls-5" points="55.75 68.16 49.55 68.16 43.37 68.16 43.37 74.35 49.55 74.35 49.55 80.54 55.75 80.54 55.75 74.35 61.93 74.35 61.93 68.16 61.93 61.97 55.75 61.97 55.75 68.16"/><polygon class="cls-9" points="55.75 99.11 61.93 99.11 68.13 99.11 68.13 92.92 61.93 92.92 55.75 92.92 49.55 92.92 43.37 92.92 43.37 99.11 49.55 99.11 55.75 99.11"/><polygon class="cls-7" points="55.75 92.92 61.93 92.92 68.13 92.92 68.13 86.73 68.13 80.54 61.93 80.54 61.93 74.35 55.75 74.35 55.75 80.54 49.55 80.54 49.55 74.35 43.37 74.35 43.37 68.16 37.13 68.16 37.13 74.35 37.13 80.54 37.13 86.73 37.13 92.92 43.37 92.92 49.55 92.92 55.75 92.92"/><rect class="cls-10" x="49.55" y="37.22" width="6.2" height="6.19"/><polygon class="cls-4" points="43.37 123.85 43.37 130.04 43.37 136.32 43.37 142.51 49.55 142.51 49.55 136.32 49.55 130.04 49.55 123.85 49.55 117.66 43.37 117.66 43.37 123.85"/><polygon class="cls-2" points="49.55 61.97 43.37 61.97 37.13 61.97 37.13 55.78 30.94 55.78 30.94 61.97 30.94 68.16 30.94 74.35 37.13 74.35 37.13 68.16 43.37 68.16 49.55 68.16 49.55 61.97"/><polygon class="cls-8" points="37.13 142.51 37.13 148.7 43.37 148.7 49.55 148.7 49.55 142.51 43.37 142.51 37.13 142.51"/><rect class="cls-5" x="37.13" y="49.59" width="6.24" height="6.19"/><rect class="cls-10" x="37.13" y="37.22" width="6.24" height="6.19"/><polygon class="cls-4" points="37.13 74.35 30.94 74.35 30.94 68.16 30.94 61.97 30.94 55.78 24.75 55.78 24.75 61.97 24.75 68.16 24.75 74.35 24.75 80.54 30.94 80.54 30.94 86.73 37.13 86.73 37.13 80.54 37.13 74.35"/><rect class="cls-11" x="30.94" y="49.59" width="6.19" height="6.19"/><path class="cls-4" d="M30.94,49.59H43.37v6.19H37.13V62H49.55v6.19h6.2V62H68.13V55.78h6.18V43.41H68.13V37.22h-6.2V30.93H43.37V24.75H37.13V37.22h6.24v6.19H37.13V37.22H30.94V49.59ZM49.55,37.22h6.2v6.19h-6.2Z"/><polygon class="cls-2" points="37.13 30.93 37.13 24.75 30.94 24.75 30.94 30.93 30.94 37.22 37.13 37.22 37.13 30.93"/><polygon class="cls-12" points="30.94 55.78 30.94 49.59 24.75 49.59 18.57 49.59 18.57 55.78 24.75 55.78 30.94 55.78"/><polygon class="cls-2" points="30.94 43.41 30.94 37.22 24.75 37.22 24.75 43.41 24.75 49.59 30.94 49.59 30.94 43.41"/><polygon class="cls-3" points="24.75 61.97 24.75 55.78 18.57 55.78 18.57 61.97 12.38 61.97 12.38 68.16 18.57 68.16 18.57 74.35 24.75 74.35 24.75 68.16 24.75 61.97"/><rect class="cls-13" x="12.38" y="49.59" width="6.19" height="6.19"/><polygon class="cls-14" points="18.57 43.41 18.57 37.22 12.38 37.22 12.38 30.93 6.19 30.93 6.19 37.22 6.19 43.41 12.38 43.41 12.38 49.59 18.57 49.59 18.57 43.41"/><polygon class="cls-14" points="18.57 24.75 24.75 24.75 24.75 18.56 24.75 12.38 18.57 12.38 18.57 18.56 12.38 18.56 12.38 24.75 12.38 30.93 18.57 30.93 18.57 24.75"/><polygon class="cls-14" points="12.38 6.19 6.19 6.19 6.19 12.38 6.19 18.56 12.38 18.56 12.38 12.38 12.38 6.19"/><rect class="cls-14" width="6.19" height="6.19"/></g></g></svg>