<svg xmlns="http://www.w3.org/2000/svg" viewBox="0 0 74.31 148.7"><defs><style>.cls-1{fill:none;}.cls-2{fill:#5b371d;}.cls-3{fill:#efcbb1;}.cls-4{fill:#805126;}.cls-5{fill:#f4d9bf;}.cls-6{fill:#59404b;}.cls-7{fill:#7a7964;}.cls-8{fill:#193540;}.cls-9{fill:#838272;}.cls-10{fill:#f9ab4e;}.cls-11{fill:#fff;}</style></defs><title>Ресурс 3</title><g id="Слой_2" data-name="Слой 2"><g id="Objects"><polygon class="cls-1" points="18.57 61.97 18.57 68.16 18.57 74.35 24.75 74.35 24.75 68.16 31 68.16 31 61.97 24.75 61.97 24.75 55.78 18.57 55.78 18.57 61.97"/><polygon class="cls-2" points="68.12 18.56 68.12 24.75 68.12 30.93 68.12 37.22 74.31 37.22 74.31 30.93 74.31 24.75 74.31 18.56 68.12 18.56"/><polygon class="cls-3" points="61.93 43.41 61.93 49.59 61.93 55.78 68.12 55.78 68.12 49.59 74.31 49.59 74.31 43.41 68.12 43.41 68.12 37.22 61.93 37.22 61.93 43.41"/><polygon class="cls-4" points="68.12 24.75 68.12 18.56 61.93 18.56 55.75 18.56 55.75 12.38 49.55 12.38 43.37 12.38 37.17 12.38 31 12.38 31 6.19 24.75 6.19 24.75 0 18.57 0 18.57 6.19 12.38 6.19 12.38 12.38 12.38 18.56 18.57 18.56 18.57 24.75 24.75 24.75 31 24.75 37.17 24.75 43.37 24.75 49.55 24.75 55.75 24.75 55.75 30.93 61.93 30.93 61.93 37.22 68.12 37.22 68.12 30.93 68.12 24.75"/><polygon class="cls-5" points="55.75 80.54 55.75 86.73 55.75 92.92 55.75 99.11 55.75 105.29 55.75 111.47 55.75 117.66 61.93 117.66 61.93 111.47 68.12 111.47 68.12 105.29 68.12 99.11 68.12 92.92 68.12 86.73 68.12 80.54 68.12 74.35 68.12 68.16 61.93 68.16 55.75 68.16 55.75 74.35 55.75 80.54"/><rect class="cls-3" x="55.75" y="55.78" width="6.18" height="6.19"/><path class="cls-5" d="M61.93,43.41V30.93H55.75V24.75H18.57V49.59H31v6.19H24.76V62H31v6.19H43.37V62H55.75V55.78h6.18V43.41ZM37.17,37.22h6.2v6.19h-6.2ZM24.76,43.41V37.22H31v6.19Z"/><rect class="cls-2" x="55.75" y="12.38" width="6.18" height="6.18"/><polygon class="cls-6" points="49.55 142.51 43.37 142.51 43.37 148.7 49.55 148.7 55.75 148.7 61.93 148.7 61.93 142.51 55.75 142.51 49.55 142.51"/><polygon class="cls-4" points="55.75 111.47 49.55 111.47 43.37 111.47 37.17 111.47 31 111.47 24.75 111.47 24.75 117.66 24.75 123.85 24.75 130.04 24.75 136.32 24.75 142.51 31 142.51 37.17 142.51 37.17 136.32 37.17 130.04 37.17 123.85 37.17 117.66 43.37 117.66 49.55 117.66 49.55 123.85 49.55 130.04 49.55 136.32 49.55 142.51 55.75 142.51 61.93 142.51 61.93 136.32 61.93 130.04 61.93 123.85 61.93 117.66 55.75 117.66 55.75 111.47"/><rect class="cls-7" x="49.55" y="68.16" width="6.2" height="6.19"/><polygon class="cls-3" points="43.37 61.97 43.37 68.16 37.17 68.16 31 68.16 31 74.35 37.17 74.35 43.37 74.35 49.55 74.35 49.55 68.16 55.75 68.16 55.75 61.97 49.55 61.97 43.37 61.97"/><rect class="cls-8" x="37.17" y="37.22" width="6.2" height="6.19"/><polygon class="cls-9" points="37.17 111.47 43.37 111.47 49.55 111.47 55.75 111.47 55.75 105.29 55.75 99.11 55.75 92.92 55.75 86.73 55.75 80.54 55.75 74.35 49.55 74.35 43.37 74.35 37.17 74.35 31 74.35 31 68.16 24.75 68.16 24.75 74.35 24.75 80.54 24.75 86.73 24.75 92.92 24.75 99.11 24.75 105.29 24.75 111.47 31 111.47 37.17 111.47"/><polygon class="cls-6" points="24.75 142.51 18.57 142.51 18.57 148.7 24.75 148.7 31 148.7 37.17 148.7 37.17 142.51 31 142.51 24.75 142.51"/><rect class="cls-3" x="24.76" y="49.59" width="6.24" height="6.19"/><rect class="cls-8" x="24.76" y="37.22" width="6.24" height="6.19"/><polygon class="cls-2" points="31 6.19 31 12.38 37.17 12.38 43.37 12.38 43.37 6.19 37.17 6.19 37.17 0 31 0 24.75 0 24.75 6.19 31 6.19"/><polygon class="cls-5" points="24.75 74.35 18.57 74.35 18.57 68.16 18.57 61.97 18.57 55.78 12.38 55.78 6.19 55.78 6.19 61.97 6.19 68.16 6.19 74.35 6.19 80.54 12.38 80.54 12.38 86.73 18.57 86.73 24.75 86.73 24.75 80.54 24.75 74.35"/><rect class="cls-10" x="18.57" y="49.59" width="6.19" height="6.19"/><polygon class="cls-11" points="18.57 55.78 18.57 49.59 12.38 49.59 6.19 49.59 6.19 55.78 12.38 55.78 18.57 55.78"/><rect class="cls-9" y="49.59" width="6.19" height="6.19"/></g></g></svg>