<svg xmlns="http://www.w3.org/2000/svg" viewBox="0 0 55.74 130.14"><defs><style>.cls-1{fill:#efcbb1;}.cls-2{fill:#a57600;}.cls-3{fill:#f4d9bf;}.cls-4{fill:#8c959b;}.cls-5{fill:#b58500;}.cls-6{fill:#1d1d1b;}.cls-7{fill:#00517b;}.cls-8{fill:#a7b2bb;}.cls-9{fill:#193540;}</style></defs><title>Ресурс 13</title><g id="Слой_2" data-name="Слой 2"><g id="Objects"><polygon class="cls-1" points="49.55 24.85 43.37 24.85 43.37 31.04 43.37 37.23 49.55 37.23 49.55 31.04 55.74 31.04 55.74 24.85 49.55 24.85"/><polygon class="cls-2" points="43.37 18.66 43.37 24.85 49.55 24.85 49.55 18.66 49.55 12.38 43.37 12.38 43.37 18.66"/><rect class="cls-1" x="43.37" y="6.19" width="6.19" height="6.19"/><polygon class="cls-3" points="37.19 86.74 37.19 92.92 43.37 92.92 49.55 92.92 49.55 86.74 43.37 86.74 37.19 86.74"/><polygon class="cls-4" points="37.19 61.98 37.19 68.17 37.19 74.36 37.19 80.55 37.19 86.74 43.37 86.74 49.55 86.74 49.55 80.55 49.55 74.36 49.55 68.17 49.55 61.98 49.55 55.79 49.55 49.6 43.37 49.6 37.19 49.6 37.19 55.79 37.19 61.98"/><rect class="cls-1" x="37.19" y="37.23" width="6.18" height="6.19"/><path class="cls-3" d="M43.37,24.85H37.19V12.38h6.18V6.19H37.19V0h-31V6.19H0v31H6.19v6.18h31V37.23h6.18V24.85ZM18.61,18.66h6.2v6.19h-6.2Zm-12.42,0h6.24v6.19H6.19ZM18.61,37.23H12.43V31H24.81v6.19Z"/><polygon class="cls-5" points="43.37 12.38 37.19 12.38 37.19 18.66 37.19 24.85 43.37 24.85 43.37 18.66 43.37 12.38"/><rect class="cls-1" x="37.19" width="6.18" height="6.19"/><polygon class="cls-6" points="30.99 123.95 24.81 123.95 24.81 130.14 30.99 130.14 37.19 130.14 43.37 130.14 43.37 123.95 37.19 123.95 30.99 123.95"/><polygon class="cls-7" points="30.99 92.92 24.81 92.92 18.61 92.92 12.43 92.92 6.19 92.92 6.19 99.11 6.19 105.29 6.19 111.48 6.19 117.76 6.19 123.95 12.43 123.95 18.61 123.95 18.61 117.76 18.61 111.48 18.61 105.29 18.61 99.11 24.81 99.11 30.99 99.11 30.99 105.29 30.99 111.48 30.99 117.76 30.99 123.95 37.19 123.95 43.37 123.95 43.37 117.76 43.37 111.48 43.37 105.29 43.37 99.11 43.37 92.92 37.19 92.92 30.99 92.92"/><rect class="cls-4" x="30.99" y="43.41" width="6.2" height="6.19"/><polygon class="cls-8" points="30.99 43.41 24.81 43.41 18.61 43.41 12.43 43.41 12.43 49.6 6.19 49.6 6.19 55.79 6.19 61.98 6.19 68.17 6.19 74.36 6.19 80.55 6.19 86.74 6.19 92.92 12.43 92.92 18.61 92.92 24.81 92.92 30.99 92.92 37.19 92.92 37.19 86.74 37.19 80.55 37.19 74.36 37.19 68.17 37.19 61.98 37.19 55.79 37.19 49.6 30.99 49.6 30.99 43.41"/><polygon class="cls-1" points="18.61 31.04 12.43 31.04 12.43 37.23 18.61 37.23 24.81 37.23 24.81 31.04 18.61 31.04"/><rect class="cls-9" x="18.61" y="18.66" width="6.2" height="6.19"/><polygon class="cls-6" points="6.19 123.95 0 123.95 0 130.14 6.19 130.14 12.43 130.14 18.61 130.14 18.61 123.95 12.43 123.95 6.19 123.95"/><rect class="cls-9" x="6.19" y="18.66" width="6.24" height="6.19"/><rect class="cls-3" y="86.74" width="6.19" height="6.18"/><polygon class="cls-4" points="6.19 80.55 6.19 74.36 6.19 68.17 6.19 61.98 6.19 55.79 6.19 49.6 0 49.6 0 55.79 0 61.98 0 68.17 0 74.36 0 80.55 0 86.74 6.19 86.74 6.19 80.55"/></g></g></svg>