<svg xmlns="http://www.w3.org/2000/svg" viewBox="0 0 68.12 136.32"><defs><style>.cls-1{fill:none;}.cls-2{fill:#9c9ca0;}.cls-3{fill:#efcbb1;}.cls-4{fill:#afaeb5;}.cls-5{fill:#4b454c;}.cls-6{fill:#c67360;}.cls-7{fill:#1d1e1d;}.cls-8{fill:#5e5760;}.cls-9{fill:#f4d9bf;}.cls-10{fill:#fff;}.cls-11{fill:#ddd;}.cls-12{fill:#e2856a;}.cls-13{fill:#193540;}</style></defs><title>Ресурс 11</title><g id="Слой_2" data-name="Слой 2"><g id="Objects"><rect class="cls-1" x="18.57" y="80.54" width="6.24" height="6.19"/><rect class="cls-1" x="49.56" y="80.54" width="6.18" height="6.19"/><polygon class="cls-2" points="61.93 18.56 61.93 24.84 61.93 31.03 61.93 37.22 61.93 43.41 61.93 49.59 61.93 55.78 61.93 61.97 68.12 61.97 68.12 55.78 68.12 49.59 68.12 43.41 68.12 37.22 68.12 31.03 68.12 24.84 68.12 18.56 61.93 18.56"/><polygon class="cls-3" points="55.74 74.35 55.74 80.54 55.74 86.73 55.74 92.92 55.74 99.09 61.93 99.09 61.93 92.92 61.93 86.73 61.93 80.54 61.93 74.35 61.93 68.16 55.74 68.16 55.74 74.35"/><rect class="cls-2" x="55.74" y="61.97" width="6.19" height="6.19"/><polygon class="cls-4" points="61.93 49.59 61.93 43.41 61.93 37.22 61.93 31.03 61.93 24.84 61.93 18.56 55.74 18.56 55.74 12.37 49.56 12.37 49.56 6.18 43.36 6.18 43.36 0 37.18 0 30.98 0 24.8 0 18.57 0 12.38 0 12.38 6.18 6.19 6.18 6.19 12.37 0 12.37 0 18.56 0 24.84 0 31.03 0 37.22 0 43.41 0 49.59 0 55.78 0 61.97 0 68.16 6.19 68.16 6.19 61.97 6.19 55.78 6.19 49.59 6.19 43.41 6.19 37.22 6.19 31.03 6.19 24.84 6.19 18.56 12.38 18.56 12.38 12.37 18.57 12.37 24.8 12.37 30.98 12.37 30.98 18.56 37.18 18.56 43.36 18.56 43.36 24.84 49.56 24.84 49.56 31.03 55.74 31.03 55.74 37.22 49.56 37.22 49.56 43.41 49.56 49.59 43.36 49.59 43.36 55.78 49.56 55.78 49.56 61.97 49.56 68.16 55.74 68.16 55.74 61.97 61.93 61.97 61.93 55.78 61.93 49.59"/><rect class="cls-2" x="55.74" y="12.37" width="6.19" height="6.19"/><polygon class="cls-5" points="55.74 86.73 49.56 86.73 49.56 92.92 49.56 99.09 49.56 105.28 55.74 105.28 55.74 99.09 55.74 92.92 55.74 86.73"/><rect class="cls-6" x="49.56" y="74.35" width="6.18" height="6.19"/><rect class="cls-2" x="49.56" y="68.16" width="6.18" height="6.19"/><rect class="cls-3" x="49.56" y="31.03" width="6.18" height="6.19"/><rect class="cls-2" x="49.56" y="6.18" width="6.18" height="6.19"/><rect class="cls-7" x="43.36" y="130.13" width="6.2" height="6.19"/><rect class="cls-3" x="43.36" y="123.94" width="6.2" height="6.19"/><polygon class="cls-8" points="49.56 92.92 49.56 86.73 43.36 86.73 43.36 80.54 37.18 80.54 30.98 80.54 24.8 80.54 24.8 86.73 18.57 86.73 18.57 92.92 18.57 99.09 18.57 105.28 18.57 111.47 18.57 117.66 18.57 123.94 24.8 123.94 30.98 123.94 30.98 117.66 30.98 111.47 30.98 105.28 30.98 99.09 30.98 92.92 37.18 92.92 37.18 99.09 37.18 105.28 37.18 111.47 37.18 117.66 37.18 123.94 43.36 123.94 49.56 123.94 49.56 117.66 49.56 111.47 49.56 105.28 49.56 99.09 49.56 92.92"/><rect class="cls-5" x="43.36" y="80.54" width="6.2" height="6.19"/><rect class="cls-3" x="43.36" y="43.41" width="6.2" height="6.19"/><rect class="cls-9" x="43.36" y="37.22" width="6.2" height="6.19"/><rect class="cls-10" x="43.36" y="31.03" width="6.2" height="6.19"/><rect class="cls-2" x="43.36" width="6.2" height="6.18"/><rect class="cls-11" x="37.18" y="130.13" width="6.18" height="6.19"/><rect class="cls-3" x="37.18" y="49.59" width="6.18" height="6.19"/><polygon class="cls-10" points="37.18 37.22 30.98 37.22 24.8 37.22 24.8 43.41 30.98 43.41 37.18 43.41 43.36 43.41 43.36 37.22 37.18 37.22"/><polygon class="cls-12" points="30.98 55.78 24.8 55.78 18.57 55.78 18.57 61.97 18.57 68.16 18.57 74.35 18.57 80.54 24.8 80.54 30.98 80.54 37.18 80.54 43.36 80.54 49.56 80.54 49.56 74.35 49.56 68.16 49.56 61.97 49.56 55.78 43.36 55.78 37.18 55.78 30.98 55.78"/><rect class="cls-13" x="30.98" y="24.84" width="6.2" height="6.19"/><rect class="cls-7" x="24.8" y="130.13" width="6.18" height="6.19"/><rect class="cls-3" x="24.8" y="123.94" width="6.18" height="6.19"/><rect class="cls-11" x="18.57" y="130.13" width="6.24" height="6.19"/><rect class="cls-13" x="18.57" y="24.84" width="6.24" height="6.19"/><polygon class="cls-3" points="18.57 86.73 18.57 80.54 18.57 74.35 18.57 68.16 12.38 68.16 12.38 74.35 12.38 80.54 12.38 86.73 12.38 92.92 12.38 99.09 18.57 99.09 18.57 92.92 18.57 86.73"/><polygon class="cls-6" points="18.57 55.78 12.38 55.78 12.38 61.97 12.38 68.16 18.57 68.16 18.57 61.97 18.57 55.78"/><path class="cls-9" d="M12.38,31V43.41h6.19v6.18H31v6.19h6.2V49.59h6.18V43.41H24.8V37.22H43.36V31h6.2V24.84h-6.2V18.56H31V12.37H18.57v6.19H12.38V31Zm24.8-6.19V31H31V24.84Zm-12.38,0V31H18.57V24.84Z"/><rect class="cls-2" x="12.38" y="12.37" width="6.19" height="6.19"/><polygon class="cls-2" points="12.38 61.97 12.38 55.78 18.57 55.78 24.8 55.78 30.98 55.78 30.98 49.59 24.8 49.59 18.57 49.59 18.57 43.41 12.38 43.41 12.38 37.22 12.38 31.03 12.38 24.84 12.38 18.56 6.19 18.56 6.19 24.84 6.19 31.03 6.19 37.22 6.19 43.41 6.19 49.59 6.19 55.78 6.19 61.97 6.19 68.16 6.19 74.35 12.38 74.35 12.38 68.16 12.38 61.97"/></g></g></svg>