<svg xmlns="http://www.w3.org/2000/svg" viewBox="0 0 86.74 136.32"><defs><style>.cls-1{fill:none;}.cls-2{fill:#bc9148;}.cls-3{fill:#e2b759;}.cls-4{fill:#efcbb1;}.cls-5{fill:#7b9b79;}.cls-6{fill:#cc7662;}.cls-7{fill:#f4d9bf;}.cls-8{fill:#84a982;}.cls-9{fill:#912e29;}.cls-10{fill:#fff;}.cls-11{fill:#59404b;}.cls-12{fill:#e2856a;}.cls-13{fill:#193540;}</style></defs><title>Ресурс 9</title><g id="Слой_2" data-name="Слой 2"><g id="Objects"><rect class="cls-1" x="24.76" y="80.54" width="6.24" height="6.19"/><rect class="cls-1" x="55.75" y="80.54" width="6.18" height="6.19"/><polygon class="cls-2" points="80.55 37.22 80.55 31.03 80.55 24.84 80.55 18.56 74.31 18.56 74.31 24.84 74.31 31.03 74.31 37.22 74.31 43.41 80.55 43.41 80.55 49.59 86.74 49.59 86.74 43.41 86.74 37.22 80.55 37.22"/><rect class="cls-2" x="74.31" y="49.59" width="6.24" height="6.19"/><polygon class="cls-3" points="74.31 43.41 74.31 37.22 74.31 31.03 74.31 24.84 74.31 18.56 68.12 18.56 68.12 12.37 68.12 6.18 61.93 6.18 55.75 6.18 55.75 0 49.55 0 43.37 0 37.17 0 31 0 24.76 0 18.57 0 18.57 6.18 12.38 6.18 12.38 12.37 6.19 12.37 6.19 18.56 6.19 24.84 6.19 31.03 6.19 37.22 6.19 43.41 0 43.41 0 49.59 0 55.78 6.19 55.78 6.19 61.97 12.38 61.97 12.38 55.78 12.38 49.59 12.38 43.41 12.38 37.22 12.38 31.03 12.38 24.84 18.57 24.84 18.57 18.56 18.57 12.37 24.76 12.37 31 12.37 31 18.56 37.17 18.56 43.37 18.56 49.55 18.56 49.55 24.84 55.75 24.84 55.75 31.03 61.93 31.03 68.12 31.03 68.12 37.22 61.93 37.22 61.93 43.41 55.75 43.41 55.75 49.59 49.55 49.59 49.55 55.78 55.75 55.78 61.93 55.78 68.12 55.78 74.31 55.78 74.31 49.59 80.55 49.59 80.55 43.41 74.31 43.41"/><polygon class="cls-2" points="68.12 18.56 74.31 18.56 74.31 12.37 74.31 6.18 68.12 6.18 68.12 12.37 68.12 18.56"/><polygon class="cls-2" points="61.93 55.78 55.75 55.78 55.75 61.97 61.93 61.97 68.12 61.97 74.31 61.97 74.31 55.78 68.12 55.78 61.93 55.78"/><rect class="cls-4" x="61.93" y="31.03" width="6.19" height="6.19"/><polygon class="cls-5" points="61.93 86.73 55.75 86.73 55.75 92.92 55.75 99.09 55.75 105.28 55.75 111.47 61.93 111.47 61.93 105.28 61.93 99.09 61.93 92.92 61.93 86.73"/><polygon class="cls-6" points="55.75 80.54 61.93 80.54 61.93 74.35 61.93 68.16 55.75 68.16 55.75 74.35 55.75 80.54"/><polygon class="cls-4" points="55.75 61.97 55.75 68.16 61.93 68.16 61.93 74.35 61.93 80.54 61.93 86.73 61.93 92.92 61.93 99.09 68.12 99.09 68.12 92.92 68.12 86.73 68.12 80.54 68.12 74.35 68.12 68.16 68.12 61.97 61.93 61.97 55.75 61.97"/><rect class="cls-2" x="55.75" width="6.18" height="6.18"/><polygon class="cls-7" points="49.55 123.94 49.55 130.13 55.75 130.13 55.75 123.94 55.75 117.66 49.55 117.66 49.55 123.94"/><polygon class="cls-8" points="55.75 99.09 55.75 92.92 55.75 86.73 49.55 86.73 43.37 86.73 37.17 86.73 31 86.73 24.76 86.73 24.76 92.92 24.76 99.09 24.76 105.28 24.76 111.47 31 111.47 31 117.66 37.17 117.66 43.37 117.66 49.55 117.66 55.75 117.66 55.75 111.47 55.75 105.28 55.75 99.09"/><polygon class="cls-9" points="49.55 80.54 43.37 80.54 37.17 80.54 31 80.54 31 86.73 37.17 86.73 43.37 86.73 49.55 86.73 55.75 86.73 55.75 80.54 49.55 80.54"/><rect class="cls-10" x="49.55" y="31.03" width="6.2" height="6.19"/><polygon class="cls-11" points="43.37 130.13 43.37 136.32 49.55 136.32 55.75 136.32 55.75 130.13 49.55 130.13 43.37 130.13"/><polygon class="cls-12" points="43.37 61.97 37.17 61.97 31 61.97 24.76 61.97 24.76 68.16 24.76 74.35 24.76 80.54 31 80.54 37.17 80.54 43.37 80.54 49.55 80.54 55.75 80.54 55.75 74.35 55.75 68.16 55.75 61.97 49.55 61.97 43.37 61.97"/><polygon class="cls-4" points="43.37 55.78 37.17 55.78 31 55.78 24.76 55.78 24.76 61.97 31 61.97 37.17 61.97 43.37 61.97 49.55 61.97 55.75 61.97 55.75 55.78 49.55 55.78 49.55 49.59 43.37 49.59 43.37 55.78"/><polygon class="cls-10" points="37.17 37.22 31 37.22 31 43.41 37.17 43.41 43.37 43.41 49.55 43.41 49.55 37.22 43.37 37.22 37.17 37.22"/><rect class="cls-13" x="37.17" y="24.84" width="6.2" height="6.19"/><polygon class="cls-7" points="31 123.94 31 130.13 37.17 130.13 37.17 123.94 37.17 117.66 31 117.66 31 123.94"/><polygon class="cls-11" points="24.76 130.13 24.76 136.32 31 136.32 37.17 136.32 37.17 130.13 31 130.13 24.76 130.13"/><rect class="cls-13" x="24.76" y="24.84" width="6.24" height="6.19"/><polygon class="cls-4" points="24.76 86.73 24.76 80.54 24.76 74.35 24.76 68.16 24.76 61.97 18.57 61.97 18.57 68.16 18.57 74.35 18.57 80.54 18.57 86.73 18.57 92.92 18.57 99.09 24.76 99.09 24.76 92.92 24.76 86.73"/><polygon class="cls-2" points="24.76 61.97 24.76 55.78 31 55.78 37.17 55.78 37.17 49.59 31 49.59 24.76 49.59 24.76 43.41 18.57 43.41 18.57 37.22 18.57 31.03 18.57 24.84 12.38 24.84 12.38 31.03 12.38 37.22 12.38 43.41 12.38 49.59 12.38 55.78 12.38 61.97 12.38 68.16 18.57 68.16 18.57 61.97 24.76 61.97"/><path class="cls-7" d="M18.57,37.22v6.19h6.19v6.18H37.17v6.19h6.2V49.59H55.75V43.41h6.18V31H55.75v6.19h-6.2v6.19H31V37.22H49.55V31h6.2V24.84h-6.2V18.56H31V12.37H24.76V24.84H31V31H24.76V24.84H18.57V37.22Zm18.6-12.38h6.2V31h-6.2Z"/><polygon class="cls-2" points="24.76 18.56 24.76 12.37 18.57 12.37 18.57 18.56 18.57 24.84 24.76 24.84 24.76 18.56"/></g></g></svg>